TITLE ""
FILE "DISC1Track15.mp3" MP3
  TRACK 01 AUDIO
    TITLE "DISC1Track15_01"
    INDEX 01 00:00:00
  TRACK 02 AUDIO
    TITLE "DISC1Track15_02"
    INDEX 01 00:01:37
  TRACK 03 AUDIO
    TITLE "DISC1Track15_03"
    INDEX 01 00:01:51
  TRACK 04 AUDIO
    TITLE "DISC1Track15_04"
    INDEX 01 00:04:39
  TRACK 05 AUDIO
    TITLE "DISC1Track15_05"
    INDEX 01 00:07:36
  TRACK 06 AUDIO
    TITLE "DISC1Track15_06"
    INDEX 01 00:10:03
  TRACK 07 AUDIO
    TITLE "DISC1Track15_07"
    INDEX 01 00:10:15
  TRACK 08 AUDIO
    TITLE "DISC1Track15_08"
    INDEX 01 00:12:74
  TRACK 09 AUDIO
    TITLE "DISC1Track15_09"
    INDEX 01 00:15:61
  TRACK 10 AUDIO
    TITLE "DISC1Track15_10"
    INDEX 01 00:18:14
  TRACK 11 AUDIO
    TITLE "DISC1Track15_11"
    INDEX 01 00:18:28
  TRACK 12 AUDIO
    TITLE "DISC1Track15_12"
    INDEX 01 00:22:26
  TRACK 13 AUDIO
    TITLE "DISC1Track15_13"
    INDEX 01 00:26:68
  TRACK 14 AUDIO
    TITLE "DISC1Track15_14"
    INDEX 01 00:31:01
  TRACK 15 AUDIO
    TITLE "DISC1Track15_15"
    INDEX 01 00:31:17
  TRACK 16 AUDIO
    TITLE "DISC1Track15_16"
    INDEX 01 00:34:01
  TRACK 17 AUDIO
    TITLE "DISC1Track15_17"
    INDEX 01 00:37:29
  TRACK 18 AUDIO
    TITLE "DISC1Track15_18"
    INDEX 01 00:40:22
  TRACK 19 AUDIO
    TITLE "DISC1Track15_19"
    INDEX 01 00:40:35
  TRACK 20 AUDIO
    TITLE "DISC1Track15_20"
    INDEX 01 00:44:21
  TRACK 21 AUDIO
    TITLE "DISC1Track15_21"
    INDEX 01 00:48:13
  TRACK 22 AUDIO
    TITLE "DISC1Track15_22"
    INDEX 01 00:51:51
  TRACK 23 AUDIO
    TITLE "DISC1Track15_23"
    INDEX 01 00:51:63
  TRACK 24 AUDIO
    TITLE "DISC1Track15_24"
    INDEX 01 00:54:37
  TRACK 25 AUDIO
    TITLE "DISC1Track15_25"
    INDEX 01 00:57:63
  TRACK 26 AUDIO
    TITLE "DISC1Track15_26"
    INDEX 01 01:00:65
  TRACK 27 AUDIO
    TITLE "DISC1Track15_27"
    INDEX 01 01:01:00
  TRACK 28 AUDIO
    TITLE "DISC1Track15_28"
    INDEX 01 01:03:58
  TRACK 29 AUDIO
    TITLE "DISC1Track15_29"
    INDEX 01 01:06:19
  TRACK 30 AUDIO
    TITLE "DISC1Track15_30"
    INDEX 01 01:08:34
  TRACK 31 AUDIO
    TITLE "DISC1Track15_31"
    INDEX 01 01:08:47
  TRACK 32 AUDIO
    TITLE "DISC1Track15_32"
    INDEX 01 01:10:09
  TRACK 33 AUDIO
    TITLE "DISC1Track15_33"
    INDEX 01 01:12:39
  TRACK 34 AUDIO
    TITLE "DISC1Track15_34"
    INDEX 01 01:14:30
  TRACK 35 AUDIO
    TITLE "DISC1Track15_35"
    INDEX 01 01:14:52
  TRACK 36 AUDIO
    TITLE "DISC1Track15_36"
    INDEX 01 01:17:46
  TRACK 37 AUDIO
    TITLE "DISC1Track15_37"
    INDEX 01 01:20:45
  TRACK 38 AUDIO
    TITLE "DISC1Track15_38"
    INDEX 01 01:23:21
  TRACK 39 AUDIO
    TITLE "DISC1Track15_39"
    INDEX 01 01:23:35
  TRACK 40 AUDIO
    TITLE "DISC1Track15_40"
    INDEX 01 01:27:25
  TRACK 41 AUDIO
    TITLE "DISC1Track15_41"
    INDEX 01 01:31:62
  TRACK 42 AUDIO
    TITLE "DISC1Track15_42"
    INDEX 01 01:35:72
  TRACK 43 AUDIO
    TITLE "DISC1Track15_43"
    INDEX 01 01:36:14
  TRACK 44 AUDIO
    TITLE "DISC1Track15_44"
    INDEX 01 01:39:40
  TRACK 45 AUDIO
    TITLE "DISC1Track15_45"
    INDEX 01 01:41:70
  TRACK 46 AUDIO
    TITLE "DISC1Track15_46"
    INDEX 01 01:43:67
